<?xml version="1.0" standalone="no"?>
<!DOCTYPE svg PUBLIC "-//W3C//DTD SVG 20010904//EN"
 "http://www.w3.org/TR/2001/REC-SVG-20010904/DTD/svg10.dtd">
<svg version="1.0" xmlns="http://www.w3.org/2000/svg"
 width="700.000000pt" height="700.000000pt" viewBox="0 0 700.000000 700.000000"
 preserveAspectRatio="xMidYMid meet">
<metadata>
Created by potrace 1.14, written by Peter Selinger 2001-2017
</metadata>
<g transform="translate(0.000000,700.000000) scale(0.100000,-0.100000)"
fill="#000000" stroke="none">
<path d="M3230 5830 c-84 -8 -172 -18 -210 -24 -14 -3 -59 -10 -100 -16 -271
-42 -633 -162 -915 -302 -474 -236 -917 -615 -1225 -1048 -214 -301 -403 -689
-491 -1010 -7 -25 -14 -49 -15 -55 -54 -190 -98 -458 -111 -670 -8 -141 -8
-1217 0 -1272 14 -97 97 -201 195 -246 73 -33 199 -31 272 5 87 43 150 114
180 203 11 32 14 168 15 650 1 336 5 639 9 675 16 150 25 214 37 268 5 23 12
59 15 80 9 58 69 261 110 369 248 665 773 1221 1425 1508 163 72 442 158 579
180 19 3 47 8 62 11 15 3 42 7 60 10 18 2 58 7 88 11 75 10 489 10 570 0 36
-4 83 -10 105 -13 22 -2 60 -8 85 -14 25 -5 56 -12 70 -14 61 -12 86 -17 102
-22 9 -3 26 -7 38 -9 12 -2 70 -20 128 -39 368 -119 674 -292 962 -545 47 -41
100 -91 119 -111 111 -117 143 -152 196 -220 33 -41 63 -77 66 -80 19 -17 166
-253 217 -350 95 -180 151 -323 206 -525 49 -180 62 -240 81 -390 15 -122 18
-224 20 -785 l2 -615 25 -59 c32 -75 91 -136 166 -173 49 -24 69 -28 142 -28
73 0 93 4 142 28 72 35 140 110 169 185 21 56 22 66 22 632 0 570 -4 748 -23
878 -5 37 -12 87 -15 112 -3 25 -12 79 -20 120 -8 41 -17 85 -20 97 -2 13 -17
74 -34 137 -203 759 -655 1410 -1303 1874 -428 307 -1027 538 -1523 587 -38 4
-79 9 -90 12 -34 8 -505 10 -585 3z"/>
<path d="M3368 4835 c-2 -1 -39 -5 -84 -9 -226 -17 -503 -89 -727 -187 -501
-221 -917 -621 -1156 -1112 -93 -191 -175 -430 -195 -569 -3 -21 -10 -57 -15
-80 -22 -97 -26 -242 -26 -843 l0 -630 23 -46 c35 -70 84 -122 149 -157 171
-91 379 -20 461 156 30 64 27 -24 35 942 2 223 7 419 11 435 3 17 13 65 22
108 21 112 74 267 128 379 286 592 889 960 1545 943 150 -4 182 -7 320 -37
551 -117 1012 -520 1212 -1059 37 -102 58 -182 79 -314 16 -96 18 -183 19
-699 1 -351 6 -607 12 -633 22 -102 83 -179 177 -225 55 -28 79 -33 140 -34
40 -1 87 4 105 10 95 33 173 105 213 196 18 42 19 73 19 675 0 679 -3 736 -45
935 -168 780 -717 1421 -1461 1705 -146 56 -362 112 -499 129 -25 3 -65 8 -90
12 -44 6 -367 14 -372 9z"/>
<path d="M3390 3828 c-505 -38 -951 -371 -1135 -848 -48 -123 -63 -184 -83
-338 -5 -35 -8 -325 -8 -645 l1 -582 28 -57 c36 -74 96 -134 166 -167 47 -22
70 -26 141 -26 73 1 93 5 140 29 72 36 123 86 157 155 32 63 29 -9 36 876 2
209 6 389 9 400 3 11 11 40 18 65 49 181 219 364 401 430 330 121 678 -16 839
-330 13 -25 34 -83 46 -130 22 -83 22 -98 23 -653 1 -488 4 -575 17 -615 32
-93 83 -153 174 -198 47 -24 67 -28 140 -29 103 0 171 27 239 96 100 102 99
92 96 790 -2 502 -5 607 -18 681 -80 419 -341 769 -715 958 -110 55 -242 102
-332 116 -19 3 -38 8 -41 10 -6 3 -127 14 -199 17 -25 1 -88 -1 -140 -5z"/>
</g>
</svg>
